<svg width="101" height="101" viewBox="0 0 101 101" fill="none" xmlns="http://www.w3.org/2000/svg">
<path d="M50 51C50 64.8071 38.8071 76 25 76C11.1929 76 0 64.8071 0 51C0 37.1929 10.5111 25 24.3183 25C21.8183 39 36.8183 54 50 51Z" fill="white"/>
<path d="M75.2986 76C75.2986 89.8071 64.1058 101 50.2986 101C36.4915 101 28.3183 90.3071 28.3183 76.5C35.3183 78.5 53.8183 66 50.2986 51C64.3183 51.5 75.2986 62.1929 75.2986 76Z" fill="#FFFDFD"/>
<path d="M100.312 50.437C100.312 64.2441 89.6192 75.437 75.812 75.437C79.8183 64.5 62.3183 47 50.312 50.437C54.312 30.437 62.812 26.937 75.312 25.437C89.1192 25.437 100.312 36.6299 100.312 50.437Z" fill="#FDFDFD"/>
<path d="M74.8183 25.5C67.3553 23.5608 52.3183 27.5 49.3138 50.4629C35.5092 50.2023 24.5295 38.8002 24.7901 24.9955C25.0507 11.1909 36.4528 0.211244 50.2575 0.471827C64.0621 0.73241 75.0788 11.6953 74.8183 25.5Z" fill="#FBFBFB"/>
</svg>
